<svg id="Layer_1" data-name="Layer 1" xmlns="http://www.w3.org/2000/svg" xmlns:xlink="http://www.w3.org/1999/xlink" viewBox="0 0 422 414.09"><defs><clipPath id="clip-path" transform="translate(3.5 -0.45)"><path d="M218.13,323c0-34.47-31.44-67.32-84.19-67.32-47.54-.52-87.83,30-87.83,65.47,0,36.15,34.34,66.25,81.88,66.25C188.77,387.37,218.13,359.12,218.13,323ZM185.24,102c-5.51-41.9-32.81-76.28-64.7-77.24s-53.31,31.12-47.8,73,35.83,71.18,67.75,72.14S190.74,143.86,185.24,102Zm73.85,216.81c0,40.94-37.38,90.79-131.43,90.79C58.87,409.55,1.5,379.88,1.5,330c0-38.51,24.38-88.51,138.32-88.51-16.92-13.79-21.07-33.08-10.73-54-66.71,0-100.88-39.22-100.88-89,0-48.73,36.24-93,110.15-93h118.4L230.3,33.22H199.22c21.92,12.56,33.59,38.43,33.59,66.95,0,26.17-14.41,47.38-35,63.28-36.5,28.22-27.16,44,11.09,71.87C246.62,263.57,259.08,285.38,259.08,318.76ZM413.5,92.85H358.88v54.62H331.57V92.85H276.95V65.54h54.62V10.92h27.31V65.54H413.5V92.85Z" fill="#fff" clip-rule="evenodd"/></clipPath></defs><title>google</title><path d="M218.13,323c0-34.47-31.44-67.32-84.19-67.32-47.54-.52-87.83,30-87.83,65.47,0,36.15,34.34,66.25,81.88,66.25C188.77,387.37,218.13,359.12,218.13,323ZM185.24,102c-5.51-41.9-32.81-76.28-64.7-77.24s-53.31,31.12-47.8,73,35.83,71.18,67.75,72.14S190.74,143.86,185.24,102Zm73.85,216.81c0,40.94-37.38,90.79-131.43,90.79C58.87,409.55,1.5,379.88,1.5,330c0-38.51,24.38-88.51,138.32-88.51-16.92-13.79-21.07-33.08-10.73-54-66.71,0-100.88-39.22-100.88-89,0-48.73,36.24-93,110.15-93h118.4L230.3,33.22H199.22c21.92,12.56,33.59,38.43,33.59,66.95,0,26.17-14.41,47.38-35,63.28-36.5,28.22-27.16,44,11.09,71.87C246.62,263.57,259.08,285.38,259.08,318.76ZM413.5,92.85H358.88v54.62H331.57V92.85H276.95V65.54h54.62V10.92h27.31V65.54H413.5V92.85Z" transform="translate(3.5 -0.45)" fill="#fff" fill-rule="evenodd"/><g clip-path="url(#clip-path)"><rect width="422" height="414.09" fill="#fff"/></g></svg>