<svg id="Layer_1" data-name="Layer 1" xmlns="http://www.w3.org/2000/svg" xmlns:xlink="http://www.w3.org/1999/xlink" viewBox="0 0 422 344.82"><defs><clipPath id="clip-path" transform="translate(3.5 -35.09)"><path d="M413.5,79.72A168.88,168.88,0,0,1,365,93a84.78,84.78,0,0,0,37.16-46.76,169.22,169.22,0,0,1-53.68,20.51,84.41,84.41,0,0,0-61.7-26.69c-54.56,0-94.67,50.92-82.34,103.79A240,240,0,0,1,30.18,55.56,84.63,84.63,0,0,0,56.34,168.41a84.15,84.15,0,0,1-38.28-10.57C17.14,197,45.2,233.62,85.85,241.79a84.69,84.69,0,0,1-38.17,1.45,84.61,84.61,0,0,0,79,58.7,170,170,0,0,1-125.14,35,239.25,239.25,0,0,0,129.57,38c156.93,0,245.59-132.55,240.25-251.44A171.72,171.72,0,0,0,413.5,79.72Z" fill="none" clip-rule="evenodd"/></clipPath></defs><title>twitter</title><g clip-path="url(#clip-path)"><rect width="422" height="344.82"/></g></svg>